HIERARCHY
ROOT Hips
{
	OFFSET 0.00000 0.00000 0.00000
	CHANNELS 6 Xposition Yposition Zposition Zrotation Yrotation Xrotation 
	JOINT LHipJoint
	{
		OFFSET 0 0 0
		CHANNELS 3 Zrotation Yrotation Xrotation
		JOINT LeftHip
		{
			OFFSET 1.17584 -1.63585 1.00361
			CHANNELS 3 Zrotation Yrotation Xrotation
			JOINT LeftKnee
			{
				OFFSET 2.23889 -6.15131 0.00000
				CHANNELS 3 Zrotation Yrotation Xrotation
				JOINT LeftAnkle
				{
					OFFSET 2.65161 -7.28525 0.00000
					CHANNELS 3 Zrotation Yrotation Xrotation
					JOINT LeftToe
					{
						OFFSET 0.24898 -0.68407 1.57235
						CHANNELS 3 Zrotation Yrotation Xrotation
						End Site
						{
							OFFSET 0.00000 -0.00000 0.85838
						}
					}
				}
			}
		}
	}
	JOINT RHipJoint
	{
		OFFSET 0 0 0
		CHANNELS 3 Zrotation Yrotation Xrotation
		JOINT RightHip
		{
			OFFSET -1.15592 -1.63585 1.00361
			CHANNELS 3 Zrotation Yrotation Xrotation
			JOINT RightKnee
			{
				OFFSET -2.34071 -6.43104 0.00000
				CHANNELS 3 Zrotation Yrotation Xrotation
				JOINT RightAnkle
				{
					OFFSET -2.59113 -7.11908 0.00000
					CHANNELS 3 Zrotation Yrotation Xrotation
					JOINT RightToe
					{
						OFFSET -0.17867 -0.49089 1.70981
						CHANNELS 3 Zrotation Yrotation Xrotation
						End Site
						{
							OFFSET -0.00000 -0.00000 0.89861
						}
					}
				}
			}
		}
	}
	JOINT lowerback
	{
		OFFSET 0 0 0
		CHANNELS 3 Zrotation Yrotation Xrotation
		JOINT Chest
		{
			OFFSET -0.02255 1.90764 -0.16605
			CHANNELS 3 Zrotation Yrotation Xrotation
			JOINT Chest2
			{
				OFFSET -0.00365 1.92150 -0.04898
				CHANNELS 3 Zrotation Yrotation Xrotation
				JOINT lowerneck
				{
					OFFSET 0 0 0
					CHANNELS 3 Zrotation Yrotation Xrotation
					JOINT Neck
					{
						OFFSET 0.00372 1.59170 0.08694
						CHANNELS 3 Zrotation Yrotation Xrotation
						JOINT Head
						{
							OFFSET 0.12558 1.58643 -0.08078
							CHANNELS 3 Zrotation Yrotation Xrotation
							End Site
							{
								OFFSET 0.04211 1.60835 -0.03803
							}
						}
					}
				}
				JOINT LeftCollar
				{
					OFFSET 0 0 0
					CHANNELS 3 Zrotation Yrotation Xrotation
					JOINT LeftShoulder
					{
						OFFSET 3.69324 0.96316 0.19077
CHANNELS 3 Zrotation Xrotation Yrotation
						JOINT LeftElbow
						{
OFFSET 0 -4.877960 -0.000000
CHANNELS 3 Zrotation Xrotation Yrotation
							JOINT LeftWrist
							{
OFFSET 0 -3.231690 0.000000
CHANNELS 3 Zrotation Xrotation Yrotation
								JOINT lhand
								{
									OFFSET 0 0 0
CHANNELS 3 Zrotation Xrotation Yrotation
									JOINT LFingers
									{
OFFSET 0 -0.731320 0.000000
CHANNELS 3 Zrotation Xrotation Yrotation
										End Site
										{
OFFSET 0 -0.589610 0.000000
										}
									}
								}
								JOINT LThumb
								{
OFFSET 0 0.000000 0.000000
CHANNELS 3 Zrotation Xrotation Yrotation
									End Site
									{
OFFSET 0 -0.598610 0.598610
									}
								}
							}
						}
					}
				}
				JOINT RightCollar
				{
					OFFSET 0 0 0
					CHANNELS 3 Zrotation Yrotation Xrotation
					JOINT RightShoulder
					{
						OFFSET -3.66103 0.75145 0.08281
CHANNELS 3 Zrotation Xrotation Yrotation
						JOINT RightElbow
						{
OFFSET 0 -4.914300 0.000000
CHANNELS 3 Zrotation Xrotation Yrotation
							JOINT RightWrist
							{
OFFSET 0 -3.290930 0.000000
CHANNELS 3 Zrotation Xrotation Yrotation
								JOINT rhand
								{
									OFFSET 0 0 0
CHANNELS 3 Zrotation Xrotation Yrotation
									JOINT RFingers
									{
OFFSET 0 -0.545120 0.000000
CHANNELS 3 Zrotation Xrotation Yrotation
										End Site
										{
OFFSET 0 -0.439490 0.000000
										}
									}
								}
								JOINT RThumb
								{
OFFSET 0 0.000000 0.000000
CHANNELS 3 Zrotation Xrotation Yrotation
									End Site
									{
OFFSET 0 -0.446200 0.446200
									}
								}
							}
						}
					}
				}
			}
		}
	}
}
MOTION
Frames: 6
Frame Time: 0.008333333333333333
-1.859327 12.346851 -5.922944 -772.356090 -10.918214 1138.192521 0.000000 0.000000 0.000000 -6.076881 -14.226325 -70.080690 10.183794 17.511564 60.100356 2.807330 -1.072807 -31.464367 2.867112 10.474046 30.528558 0.000000 0.000000 0.000000 0.515904 30.400920 -112.154809 -15.736121 -19.558304 77.444399 0.755914 15.229510 6.823547 -1.903280 -8.660582 24.739809 -3.426253 0.553294 21.693003 -1.251479 -0.350611 11.925969 0.672247 -0.517351 0.891248 0.803707 -2.097486 -0.876492 24.637714 -3.251278 -1.371978 7.385811 -2.045953 0.178087 0.000000 0.000000 0.000000 67.564446 -23.189798 15.890642 11.667818 -19.303462 1.991912 24.908656 -11.698828 13.755062 0.000000 0.000000 0.000000 -7.125000 0.000000 0.000000 -1.708158 14.879866 -1.212122 0.000000 0.000000 0.000000 -17.481881 24.081957 23.627565 -18.117694 -28.307413 -4.604984 -19.794977 13.142418 15.055378 0.000000 0.000000 0.000000 7.125000 0.000000 0.000000 7.323558 45.804337 -0.146090
-2.814843 13.129746 -5.808895 -761.669568 1.299943 1134.525042 0.000000 0.000000 0.000000 -10.789570 -16.851931 -66.132398 8.268133 16.312350 53.521744 1.828494 -6.084994 -24.346628 1.508546 7.742609 21.942285 0.000000 0.000000 0.000000 28.083001 36.983548 -109.161728 -13.435290 -18.932760 70.471316 0.066892 12.334077 16.578945 -3.454267 -11.396362 33.628747 -2.423168 -2.482689 23.482834 -0.882653 -3.815109 13.024986 1.235141 -2.131048 1.348705 2.882929 -2.607634 -1.391235 25.513469 -3.383666 -4.417826 7.352552 -2.445720 -0.618296 0.000000 0.000000 0.000000 80.063404 -33.268742 41.640927 7.064238 -12.024953 0.744956 28.155430 22.414850 10.951175 0.000000 0.000000 0.000000 -7.125000 0.000000 0.000000 0.740525 17.602037 0.481693 0.000000 0.000000 0.000000 -10.872983 27.525358 33.696935 -16.876865 -26.694236 -4.032407 -21.061394 15.812892 11.511103 0.000000 0.000000 0.000000 7.125000 0.000000 0.000000 5.483140 42.226708 0.376521
-3.902499 13.680318 -5.648375 -748.784466 13.549989 1131.588013 0.000000 0.000000 0.000000 -28.130019 -8.032263 -64.499655 8.478158 16.458214 54.264682 -0.636920 -16.566889 -3.414466 4.498301 -12.703268 -38.409635 0.000000 0.000000 0.000000 8.111470 37.007827 -111.571944 -11.762229 -18.288293 65.233240 -0.010989 -3.173331 -5.100718 -8.032310 -16.139382 52.673161 -1.842987 -5.024928 23.758242 0.181805 -6.605359 13.025647 2.646838 -3.411101 1.422608 2.136696 -5.366859 -0.813669 27.200891 -7.031382 -4.958415 7.993514 -4.378472 -0.333475 0.000000 0.000000 0.000000 84.120473 -49.323162 3.551858 9.696552 -16.260367 1.391559 39.705596 1.208178 22.155090 0.000000 0.000000 0.000000 -7.125000 0.000000 0.000000 6.615896 2.252934 6.390395 0.000000 0.000000 0.000000 -8.550390 35.624835 33.147224 -13.186288 -21.558948 -2.521695 -14.173603 19.421152 14.688615 0.000000 0.000000 0.000000 7.125000 0.000000 0.000000 12.362448 44.745926 0.077405
-4.616541 14.328757 -5.759739 -747.124462 21.281619 1127.972821 0.000000 0.000000 0.000000 -27.510541 -2.280242 -72.779813 14.533310 19.264569 73.824220 -0.326526 -13.830129 -5.071217 6.717937 -15.089657 -47.799228 0.000000 0.000000 0.000000 -6.088096 35.718358 -108.741784 -8.816238 -16.682377 55.443743 -0.045258 4.087136 7.145259 -7.917336 -16.051494 52.253482 -0.857729 -6.067699 25.378890 1.349763 -7.590119 12.553436 3.757302 -3.843120 0.241838 -0.406184 -5.156391 -0.830354 25.234796 -6.913786 -3.508313 7.735018 -3.987972 0.091783 0.000000 0.000000 0.000000 84.816343 -65.278220 -19.943084 13.915670 -22.613859 2.795678 32.652965 -8.451345 35.372666 0.000000 0.000000 0.000000 -7.125000 0.000000 0.000000 -0.321026 -10.158181 -0.374506 0.000000 0.000000 0.000000 -21.349426 39.441582 37.004966 -10.840577 -18.043062 -1.726458 -7.522309 21.928711 17.601249 0.000000 0.000000 0.000000 7.125000 0.000000 0.000000 19.336982 46.762485 -0.874681
-4.977561 15.417531 -6.086980 -753.210760 23.830596 1128.537045 0.000000 0.000000 0.000000 -15.891884 -0.960944 -89.154969 18.069988 19.910412 84.349033 0.130254 -11.531482 -9.846788 2.756274 -10.289325 -29.919164 0.000000 0.000000 0.000000 29.700618 31.807049 -93.120425 -3.519233 -11.487446 33.947119 -2.278363 14.643839 36.739258 -4.284328 -12.528424 37.629496 -3.049481 -6.317045 22.843148 0.563513 -8.344147 12.877022 3.959020 -4.343106 2.062801 3.402412 -2.570383 -2.741032 24.649134 -3.716036 -2.675934 6.921912 -2.241115 0.138677 0.000000 0.000000 0.000000 94.119999 -75.419376 -10.991974 13.207020 -21.589389 2.529209 24.829317 1.268536 34.545959 0.000000 0.000000 0.000000 -7.125000 0.000000 0.000000 -4.352480 -7.107755 -4.870845 0.000000 0.000000 0.000000 -30.618522 26.919396 30.792088 -10.985637 -18.265928 -1.771651 -11.794536 18.527829 21.877227 0.000000 0.000000 0.000000 7.125000 0.000000 0.000000 17.181269 51.470801 -2.806893
-5.455935 15.940428 -6.459286 -755.728970 26.612930 1125.798464 0.000000 0.000000 0.000000 0.022753 0.970094 -96.186689 17.132398 19.800831 81.588752 1.345357 -6.455611 -20.750958 1.857110 -8.552169 -24.410289 0.000000 0.000000 0.000000 17.490506 28.077964 -85.327143 -3.427233 -11.355632 33.489809 -0.072819 14.446887 21.202285 -3.407243 -11.325624 33.387492 -5.039432 -7.323423 20.954334 -0.765306 -9.835228 13.467199 3.562807 -5.173115 3.903202 4.251544 -1.962069 -3.226460 25.085310 -3.332351 -1.060577 6.911702 -1.863540 0.650230 0.000000 0.000000 0.000000 56.130763 -85.083152 -31.194057 10.894405 -18.126123 1.742935 22.264762 11.096306 28.025717 0.000000 0.000000 0.000000 -7.125000 0.000000 0.000000 -4.792107 0.165291 -4.794385 0.000000 0.000000 0.000000 -31.890847 16.746862 29.698218 -12.731830 -20.892994 -2.356831 -12.891061 10.769810 20.461214 0.000000 0.000000 0.000000 7.125000 0.000000 0.000000 15.518830 50.274405 -2.061044
